<svg width="20" height="20" viewBox="0 0 20 20" fill="none" xmlns="http://www.w3.org/2000/svg">
<g clip-path="url(#clip0_238_460)">
<path d="M10 20C9.41219 20 8.90909 19.6509 8.46567 19.3427C8.21182 19.1412 7.92737 18.9817 7.6231 18.8702C7.29053 18.811 6.95063 18.8053 6.61626 18.8533C6.06139 18.8982 5.4877 18.9442 4.99872 18.6607C4.50182 18.3733 4.25455 17.8479 4.01476 17.342C3.8923 17.0332 3.72106 16.7459 3.50759 16.4913C3.25295 16.2779 2.96574 16.1067 2.6569 15.9842C2.14995 15.745 1.62545 15.4975 1.33797 15.0002C1.05497 14.511 1.10118 13.9373 1.14545 13.3827C1.19365 13.0483 1.18801 12.7084 1.12877 12.3758C1.01722 12.0716 0.8577 11.7871 0.656257 11.5333C0.349091 11.0909 0 10.5878 0 10C0 9.41219 0.349091 8.90909 0.657326 8.46567C0.858769 8.21182 1.01829 7.92737 1.12984 7.6231C1.18904 7.29053 1.19475 6.95063 1.14674 6.61626C1.10203 6.06139 1.05583 5.48791 1.33925 4.99872C1.62674 4.50182 2.15102 4.25455 2.65797 4.01476C2.96684 3.8923 3.25405 3.72106 3.50866 3.50759C3.72209 3.25295 3.89331 2.96574 4.01583 2.6569C4.25497 2.14995 4.50246 1.62545 4.99979 1.33797C5.48898 1.05497 6.06246 1.10118 6.61733 1.14545C6.95168 1.19365 7.2916 1.18801 7.62417 1.12877C7.92844 1.01722 8.21289 0.8577 8.46674 0.656257C8.90909 0.349091 9.41219 0 10 0C10.5878 0 11.0909 0.349091 11.5343 0.657326C11.7882 0.858769 12.0726 1.01829 12.3769 1.12984C12.7095 1.18904 13.0494 1.19475 13.3837 1.14674C13.9382 1.1016 14.5121 1.05561 15.0013 1.33925C15.4982 1.62674 15.7455 2.15102 15.9852 2.65797C16.1077 2.96684 16.2789 3.25405 16.4924 3.50866C16.7471 3.72209 17.0343 3.89331 17.3431 4.01583C17.8501 4.25497 18.3745 4.50246 18.662 4.99979C18.945 5.48898 18.8988 6.06267 18.8545 6.61733C18.8064 6.95168 18.812 7.2916 18.8712 7.62417C18.9828 7.92844 19.1423 8.21289 19.3437 8.46674C19.652 8.91037 20.0011 9.41326 20.0011 10.0011C20.0011 10.5889 19.652 11.092 19.3437 11.5354C19.1423 11.7893 18.9828 12.0737 18.8712 12.378C18.812 12.7105 18.8063 13.0504 18.8543 13.3848C18.899 13.9397 18.9452 14.5132 18.6618 15.0024C18.3743 15.4993 17.849 15.7465 17.3431 15.9863C17.0342 16.1088 16.747 16.28 16.4924 16.4935C16.279 16.7481 16.1078 17.0353 15.9852 17.3442C15.7461 17.8511 15.4986 18.3756 15.0013 18.6631C14.5121 18.9461 13.9386 18.8999 13.3837 18.8556C13.0494 18.8074 12.7095 18.8131 12.3769 18.8723C12.0726 18.9838 11.7882 19.1434 11.5343 19.3448C11.0909 19.6509 10.5878 20 10 20ZM7.18032 18.0736C7.39467 18.0701 7.60854 18.0948 7.81647 18.147C8.20577 18.2777 8.56981 18.4741 8.89283 18.7277C9.28043 18.997 9.64663 19.2513 10 19.2513C10.3534 19.2513 10.7196 18.997 11.1072 18.7277C11.4302 18.4741 11.7943 18.2777 12.1835 18.1467C12.5983 18.0621 13.0245 18.0487 13.4439 18.107C13.9037 18.144 14.339 18.179 14.6261 18.013C14.9204 17.8419 15.1084 17.4445 15.3074 17.0227C15.4636 16.6345 15.685 16.2759 15.9621 15.9624C16.2758 15.6851 16.6345 15.4636 17.0229 15.3074C17.4445 15.1084 17.8428 14.9204 18.013 14.6261C18.179 14.3393 18.144 13.9042 18.1067 13.4438C18.0486 13.0244 18.0621 12.5982 18.1467 12.1833C18.2775 11.794 18.4739 11.43 18.7275 11.107C18.9968 10.7194 19.2511 10.3532 19.2511 9.99979C19.2511 9.64642 18.9968 9.28021 18.7275 8.89262C18.4739 8.56955 18.2774 8.20552 18.1465 7.81626C18.0621 7.40149 18.0487 6.9754 18.107 6.55615C18.144 6.09583 18.179 5.66096 18.013 5.3739C17.8419 5.07957 17.4445 4.89155 17.0227 4.69283C16.6345 4.53648 16.2759 4.31497 15.9624 4.03786C15.6851 3.72425 15.4636 3.36548 15.3074 2.97711C15.1084 2.55551 14.9204 2.15722 14.6261 1.98695C14.3395 1.82096 13.9042 1.85604 13.4439 1.89326C13.0244 1.95161 12.5982 1.93808 12.1833 1.85326C11.7941 1.72255 11.4301 1.52621 11.1072 1.27273C10.7196 1.00299 10.3534 0.748663 10 0.748663C9.64663 0.748663 9.28043 1.00299 8.89283 1.2723C8.56976 1.52586 8.20574 1.72234 7.81647 1.85326C7.40162 1.93756 6.97549 1.95101 6.55615 1.89305C6.09583 1.85562 5.66075 1.82096 5.3739 1.98695C5.07957 2.15807 4.89155 2.55551 4.69283 2.97733C4.53648 3.36548 4.31497 3.72408 4.03786 4.03765C3.7242 4.3149 3.36545 4.53649 2.97711 4.69283C2.55551 4.89155 2.15722 5.07957 1.98695 5.3739C1.82096 5.66075 1.85604 6.09583 1.89326 6.55615C1.95139 6.97556 1.93787 7.4018 1.85326 7.81668C1.72255 8.20589 1.52621 8.56986 1.27273 8.89283C1.00299 9.28043 0.748663 9.64663 0.748663 10C0.748663 10.3534 1.00299 10.7196 1.2723 11.1072C1.52586 11.4302 1.72234 11.7943 1.85326 12.1835C1.93777 12.5984 1.95123 13.0245 1.89305 13.4438C1.85604 13.9042 1.82096 14.339 1.98695 14.6261C2.15807 14.9204 2.55551 15.1084 2.97733 15.3074C3.36551 15.4636 3.72413 15.685 4.03765 15.9621C4.3149 16.2758 4.53649 16.6345 4.69283 17.0229C4.89155 17.4445 5.07957 17.8428 5.3739 18.013C5.66075 18.179 6.09583 18.144 6.55615 18.1067C6.76235 18.0905 6.97219 18.0736 7.18032 18.0736Z" fill="#0D1B00"/>
<path d="M9.99987 16.9198C8.63126 16.9198 7.29339 16.5139 6.15544 15.7536C5.01749 14.9932 4.13056 13.9125 3.60682 12.6481C3.08308 11.3837 2.94604 9.99231 3.21304 8.65001C3.48004 7.3077 4.13909 6.07471 5.10684 5.10696C6.07459 4.13921 7.30758 3.48017 8.64988 3.21317C9.99219 2.94616 11.3835 3.0832 12.648 3.60694C13.9124 4.13068 14.9931 5.01761 15.7535 6.15556C16.5138 7.29352 16.9197 8.63139 16.9197 9.99999C16.9175 11.8346 16.1878 13.5934 14.8905 14.8906C13.5933 16.1879 11.8345 16.9176 9.99987 16.9198ZM9.99987 3.82887C8.77934 3.82887 7.58621 4.1908 6.57138 4.86889C5.55654 5.54698 4.76557 6.51078 4.29849 7.6384C3.83142 8.76603 3.70921 10.0068 3.94732 11.2039C4.18544 12.401 4.77318 13.5006 5.63622 14.3636C6.49927 15.2267 7.59886 15.8144 8.79594 16.0525C9.99302 16.2907 11.2338 16.1684 12.3615 15.7014C13.4891 15.2343 14.4529 14.4433 15.131 13.4285C15.8091 12.4136 16.171 11.2205 16.171 9.99999C16.1691 8.36388 15.5184 6.79532 14.3614 5.63841C13.2045 4.4815 11.636 3.83074 9.99987 3.82887Z" fill="#0D1B00"/>
<path d="M8.99339 12.9531C8.91875 13.0281 8.81697 13.07 8.71119 13.07C8.60542 13.07 8.50364 13.0281 8.429 12.9531L6.17542 10.6991C5.94153 10.4652 5.94153 10.086 6.17542 9.85249L6.45762 9.5703C6.69152 9.3364 7.07031 9.3364 7.30421 9.5703L8.71119 10.9773L12.5131 7.17542C12.747 6.94153 13.1261 6.94153 13.3596 7.17542L13.6418 7.45762C13.8757 7.69152 13.8757 8.07071 13.6418 8.30421L8.99339 12.9531Z" fill="#709051"/>
</g>
<defs>
<clipPath id="clip0_238_460">
<rect width="20" height="20" fill="white"/>
</clipPath>
</defs>
</svg>
