<svg width="18" height="18" viewBox="0 0 18 18" fill="none" xmlns="http://www.w3.org/2000/svg">
<path d="M8.24979 16.5C3.70117 16.5 0 12.799 0 8.2504C0 3.70178 3.70117 0.000610352 8.24979 0.000610352C9.83149 0.000610352 11.3704 0.451299 12.7001 1.30476C12.9611 1.47287 13.0376 1.82084 12.8695 2.08257C12.7009 2.34433 12.3536 2.41999 12.0919 2.25202C10.9444 1.51474 9.6155 1.12558 8.24979 1.12558C4.32134 1.12558 1.12496 4.32195 1.12496 8.2504C1.12496 12.1787 4.32134 15.3751 8.24979 15.3751C12.1781 15.3751 15.3745 12.1787 15.3745 8.2504C15.3745 8.01556 15.3632 7.78308 15.3415 7.55443C15.3116 7.24461 15.538 6.97012 15.847 6.94017C16.1575 6.91162 16.4312 7.13668 16.4613 7.4457C16.4868 7.71317 16.4996 7.98171 16.4994 8.2504C16.4994 12.799 12.7984 16.5 8.24979 16.5Z" fill="#709051"/>
<path d="M9.18711 10.1253C9.04319 10.1253 8.89916 10.0705 8.78968 9.9604L5.41479 6.5855C5.19507 6.36568 5.19507 6.00945 5.41479 5.78973C5.63451 5.57001 5.99074 5.57001 6.21046 5.78973L9.18792 8.7672L17.0393 0.915644C17.2592 0.695925 17.6154 0.695925 17.8351 0.915644C18.0549 1.13536 18.0549 1.49159 17.8351 1.71131L9.58535 9.9611C9.47959 10.0664 9.33637 10.1255 9.18711 10.1253Z" fill="#709051"/>
</svg>
