<svg width="18" height="18" viewBox="0 0 18 18" fill="none" xmlns="http://www.w3.org/2000/svg">
<g clip-path="url(#clip0_375_23)">
<path d="M9 18C4.0372 18 0 13.9628 0 9C0 4.0372 4.0372 0 9 0C13.9628 0 18 4.0372 18 9C18 13.9628 13.9628 18 9 18ZM9 1.125C4.6575 1.125 1.125 4.6575 1.125 9C1.125 13.3425 4.6575 16.875 9 16.875C13.3425 16.875 16.875 13.3425 16.875 9C16.875 4.6575 13.3425 1.125 9 1.125Z" fill="#FF383C"/>
<path d="M6.21573 12.3465C6.07166 12.3465 5.92759 12.2918 5.81812 12.1815C5.59839 11.9618 5.59839 11.6056 5.81812 11.3858L11.3869 5.81702C11.6067 5.59729 11.9629 5.59729 12.1827 5.81702C12.4024 6.03674 12.4024 6.39298 12.1827 6.61285L6.61384 12.1815C6.56156 12.2338 6.49949 12.2753 6.43118 12.3036C6.36286 12.3319 6.28964 12.3465 6.2157 12.3465H6.21573Z" fill="#FF383C"/>
<path d="M11.7844 12.3465C11.6404 12.3465 11.4964 12.2918 11.3869 12.1816L5.81822 6.61355C5.59835 6.39382 5.59835 6.03758 5.81822 5.81785C6.03795 5.59799 6.39419 5.59799 6.61391 5.81785L12.1826 11.3866C12.4025 11.6063 12.4025 11.9625 12.1826 12.1823C12.1303 12.2345 12.0682 12.2758 11.9998 12.304C11.9315 12.3322 11.8583 12.3466 11.7844 12.3465Z" fill="#FF383C"/>
</g>
<defs>
<clipPath id="clip0_375_23">
<rect width="18" height="18" fill="white"/>
</clipPath>
</defs>
</svg>
