<svg width="942" height="424" viewBox="0 0 942 424" fill="none" xmlns="http://www.w3.org/2000/svg">
<g opacity="0.05" clip-path="url(#clip0_27_260)">
<mask id="mask0_27_260" style="mask-type:alpha" maskUnits="userSpaceOnUse" x="0" y="0" width="942" height="424">
<path d="M942 0H0V424H942V0Z" fill="#D9D9D9"/>
</mask>
<g mask="url(#mask0_27_260)">
<path d="M774.54 217.249L779.294 219.498L784.76 217.436L785.81 215.029L785.103 213.343L780.712 216.14L770.669 214.828L767.509 241.654L770.669 240.717L771.022 230.108L773.843 232.342L777.023 240.155L779.078 238.959L779.117 239.045L779.093 238.959L775.07 226.936L779.117 223.405L772.263 224.515L770.316 221.545L770.86 217.812L774.54 217.249Z" fill="#709051"/>
<path d="M788.793 194.156L783.518 174.249L771.375 164.187L772.602 155.999L769.604 149.671L767.318 150.593L766.445 158.796L765.042 160.093L766.091 165.124L768.378 166.796L767.863 169.578L770.149 172.951L771.375 173.311L771.91 169.203L780.889 176.843L778.411 177.968L774.717 175.921L774.893 181.687L776.65 182.235L777.184 184.858L779.647 185.406L781.939 184.109L779.824 179.452L781.939 177.968L784.392 185.983L781.993 188.015L780.697 187.842L776.135 190.25L775.59 195.108L779.118 191.922L780.535 191.749L781.409 192.671L781.747 195.857L785.81 199.937L786.86 194.718L788.793 194.156Z" fill="#709051"/>
<path d="M693.562 159.156L696.29 156.907L702.192 180.101L700.951 180.562L701.481 191.547L703.689 190.798L709.4 201.594L708.801 203.353L721.557 217.523L704.317 179.798L706.171 170.875L707.575 169.837L708.718 171.51L708.556 174.22L711.715 173.557L718.324 182.206L719.909 181.644L721.935 183.143L721.582 188.448L734.53 176.714L733.386 165.542L722.293 151.948L721.214 145.721L728.357 139.753L731.615 140.315L732.228 144.409L733.386 145.058L738.141 139.191L740.594 140.128L751.77 134.261L762.765 106.425L758.717 107.823L758.187 103.08L759.061 101.134L747.899 89.8617L753.62 82.034L755.558 82.2219L748.704 79.627L744.219 81.6739L743.945 79.5258L738.837 77.2917L738.93 75.331L746.751 68.4406L748.527 70.0266L747.462 72.6209L748.09 76.4556L755.828 72.5348L758.825 73.5582L759.36 79.1511L765.601 82.5966L768.422 88.7516L767.632 91.2598L769.565 93.2204L774.579 91.1736L774.403 80.9245L764.796 73.5867L768.844 69.4064L768.491 65.7736L772.185 60.368L774.991 62.4293L779.216 59.6331L781.684 38.875L773.053 23.1335L764.59 20.2505L763.01 23.0326L759.061 16.6178L757.819 18.9387L753.242 17.5404L759.316 3.11071L780.619 2.10163L781.247 3.87471L790.471 2.83681L787.389 -4.24107L793.292 -6.37451L798.306 -1.35802L801.539 -5.20693L799.739 -7.49891L802.015 -8.3494L804.561 -3.41941L800.95 11.0103L820.153 31.5952L821.203 31.3214L821.733 26.9391L820.153 25.2814L822.876 24.1425L820.237 20.6108L821.105 18.6647L823.136 19.3135L818.996 13.259L820.59 13.9077L813.191 6.74334L811.415 7.01725L810.449 4.98469L810.984 3.39901L809.144 0.703358L813.245 -0.795822L815.11 -0.248051L816.076 1.25114L817.931 -0.608437L825.388 0.789852L825.496 -1.83373L829.829 -7.05208L838.454 -7.87371L828.165 -13.6542L828.249 -15.2399L830.02 -17.186L829.053 -18.7717L848.757 -14.1299L848.497 -18.8725L785.824 -33.2157L790.677 -28.9344L762.942 -31.3562L760.489 -34.1672L707.506 -40.0198L711.446 -36.8484L695.962 -38.434L696.06 -34.614L671.146 -44.0128L668.516 -41.3171L661.034 -41.591L659.699 -43.0758L649.848 -42.9893L646.055 -45.8867L643.249 -45.2237L641.139 -42.8019L635.153 -42.3406L643.877 -47.7463L641.944 -50.6438L587.524 -46.3481L590.183 -44.0272L578.545 -43.1046L586.395 -37.9872L574.154 -39.8467L573.011 -38.2611L574.522 -36.488L574.605 -35.0897L566.51 -41.8937L574.154 -28.401L576.092 -29.7993L575.847 -28.6894L575.395 -28.502L574.959 -21.5105L572.496 -20.9484L570.204 -21.7844L572.849 -23.9179L573.202 -26.8154L565.19 -36.488L564.754 -40.8703L559.018 -43.1046L557.095 -42.182L555.868 -38.7368L556.222 -37.3385L553.754 -35.5654L561.579 -26.1667L538.422 -33.8933L536.572 -32.8698L540.973 -27.4641L512.679 -22.2313L510.746 -23.7017L512.939 -25.5613L510.471 -28.0695L504.598 -28.0551L507.135 -22.8512L508.798 -22.0295L508.523 -20.4438L499.201 -17.8347L500.428 -16.076L498.931 -15.139L494.01 -16.9121L491.626 -16.1625L492.499 -14.5768L495.497 -13.8272L488.205 -15.2255L484.335 -21.0925L500.972 -21.9286L501.767 -23.8026L501.232 -25.3882L474.387 -31.5292L476.159 -33.8645L437.251 -27.0604L440.944 -26.6856L429.769 -11.0451L421.578 -10.5838L418.063 -7.03765L418.226 4.88378L420.693 6.64244L431.868 3.02422L434.852 9.43898L434.498 13.9077L430.45 15.0321L431.595 13.1726L430.273 10.2751L430.546 8.22812L426.417 9.43898L425.803 19.0395L426.512 20.2505L425.19 22.0235L415.064 24.5318L414.274 28.914L401.341 37.8371L396.939 35.6027L397.812 40.6336L390.766 39.4227L389.008 41.758L396.054 46.0393L398.52 51.8055L395.44 59.4458L381.009 58.5085L380.382 57.7731H378.801L377.479 59.3446L375.544 59.4458L375.026 80.4776L381.281 82.7263L382.603 85.6959L383.393 86.2579L383.652 87.0073L373.172 98.2659L370.965 108.789L364.369 115.405L360.853 116.242L354.598 125.093V128.249L347.729 139.133L349.487 146.312L348.26 147.609L347.47 163.077L345.358 164.835L345.44 165.96L347.293 167.531L348.356 176.483L374.93 203.944L390.071 201.162L392.524 202.373L410.227 196.318L413.579 197.702L417.272 204.406L425.381 203.757L428.979 207.303L425.899 223.419L439.635 250.967L438.232 253.013L453.631 337.747L452.323 341.379L454.776 347.347L457.583 349.019L479.511 344.738L496.15 326.013L497.729 316.34L505.57 309.91L505.388 292.958L522.913 278.082L520.529 235.701L556.099 175.733L535.331 181.125L531.813 177.218L532.348 174.421L499.952 116.501L503.563 116.126L529.267 159.43L526.171 156.446L525.558 158.42L533.314 172.85L538.245 171.827L539.118 169.766L567.643 156.446L568.433 153.289L571.24 153.102L572.03 150.968L574.757 149.195L575.096 144.539L577.127 145.188L577.755 143.602L577.044 142.593L580.125 137.85L580.208 136.163L568.855 125.914L568.679 122.195L556.712 130.758L555.034 130.023L554.779 125.453L552.665 122.57L551.07 125.828L543.151 110.735L549.574 108.789L561.619 121.546L566.103 121.258L568.571 119.298L571.024 120.595L571.377 123.68L599.544 126.65L610.107 135.327L611.25 135.227L608.444 136.539L614.331 143.155L617.942 140.82L618.119 138.124L619.277 138.211L634.952 188.866L637.852 190.163L640.658 185.983L642.689 185.608L644.627 186.905L647.527 197.616L650.171 195.108L651.32 190.812L644.451 183.474L644.819 184.772L644.451 185.248L642.434 184.412L644.559 161.693L666.647 138.975L666.828 140.373L675.193 137.129L675.355 136.005L681.969 147.004L683.902 146.716L683.289 149.8L687.16 153.981L686.885 160.684L690.496 161.996L693.562 159.156ZM435.493 18.1891L436.12 15.6664L442.007 17.4395L442.797 16.6899L441.571 15.9403L445.618 13.432L447.117 9.7994L446.313 8.675L447.553 5.33064L451.247 3.08186L452.037 -11.5352L465.229 -18.5122L465.583 -17.2148L456.698 -10.1369L458.102 -0.449863L459.587 0.66011L475.259 -1.19945L476.322 -0.363377L473.337 2.43319L462.776 3.26928L462.422 4.60989L464.806 6.28207L464.984 9.72732L461.467 8.5164L457.229 13.7203L458.115 16.7043L440.603 21.173L439.363 20.6108L438.396 18.6647L432.59 20.9856V20.7982H432.576L435.493 18.1891ZM505.511 89.7465L501.944 99.664L486.229 104.407L465.897 97.8476L465.624 97.0115L460.745 98.8134L456.262 107.751L446.763 104.263L444.256 101.192L434.471 97.7039L430.778 82.7549L427.357 81.227L387.863 89.8907L385.097 87.5123L385.751 85.8542L398.288 80.4055L399.338 77.479L401.192 76.6284L400.537 74.25L404.353 67.9647L409.763 65.1685L410.554 60.2818L414.519 59.0275L419.016 60.5699L425.749 55.6832L428.788 56.375L446.477 74.6683L442.784 79.2809L436.051 79.0069L442.661 83.346L444.637 81.9479L445.291 79.4397L449.257 76.5132L449.121 75.5329L450.32 74.5385L448.453 71.1937L450.851 70.0842L453.345 71.6266L453.754 69.9399L445.959 65.6153L445.7 64.2172L435.929 53.3193L438.436 49.8306L456.779 69.2336L456.262 71.3235L464.711 83.4757L467.695 83.8073L468.554 80.679L471.184 78.5891L467.218 73.1544L467.75 70.4874L470.53 71.886L473.283 69.2336L480.56 83.2017L486.638 85.7099L489.936 83.894L498.387 85.9984L501.944 84.182L505.511 89.7465ZM518.704 65.1685L515.804 68.2387L499.177 63.9001L488.355 67.8064L478.979 63.1933H480.437L480.179 59.4312L481.487 58.5806L482.414 54.5301L484.008 53.8378L484.403 51.7478L487.837 47.6827L493.78 49.6432L491.665 51.7334L496.817 55.4959L497.607 54.0972L502.626 52.4111L498.931 50.5945L500.909 47.38L508.7 45.4339L503.808 51.7334L504.068 53.4054L518.704 65.1685ZM548.931 84.0092L541.012 76.6139L542.729 74.6537L543.127 71.4532L543.917 71.3095L534.144 59.8635L534.933 57.2111L532.564 56.649L532.034 54.4148L543.25 46.0393L547.067 47.8557L546.929 52.8865L544.299 52.3244L550.496 66.8406L554.48 66.9849L550.771 68.931L550.373 70.7469L553.945 74.3942L556.06 82.8991L548.931 84.0092Z" fill="#709051"/>
<path d="M358.807 -32.466L362.255 -42.5279L368.319 -46.1461L366.738 -46.7228L367.256 -50.9032L370.963 -52.3013L368.319 -57.3323L386.812 -65.7074L372.285 -64.0353L371.753 -65.9814L283.826 -61.2391L283.554 -59.2784L266.382 -57.0442L265.333 -55.0836L283.295 -49.7788L286.988 -38.607L292.807 -35.8248L286.456 -34.7004L286.198 -31.6155L291.485 -32.7399L290.94 -30.7795L287.247 -29.9434L283.554 -25.2007L286.198 -2.58322L298.885 0.213341L311.286 -15.9894L358.807 -32.466Z" fill="#709051"/>
<path d="M848.114 239.046L847.255 235.687L825.069 224.89L815.723 231.031L809.046 221.906L801.642 223.045L808.334 229.171L809.752 234.764L822.96 238.483L827.361 249.67L838.792 253.562L841.422 250.405L849.355 251.529L853.06 256.185L860.978 258.607L851.823 245.201L854.983 244.264L848.114 239.046Z" fill="#709051"/>
<path d="M766.621 200.499L758.703 195.094L741.276 214.453L736.34 213.343L736.683 215.03L735.467 218.187L739.858 232.53L757.491 234.086L765.561 217.062L762.397 211.296L766.621 200.499Z" fill="#709051"/>
<path d="M854.114 301.982L842.325 272.56L839.15 272.935L836.682 259.904L835.809 259.529L827.704 285.044L821.012 282.248L815.723 270.888L816.429 268.669L819.25 266.232V264.747L813.255 264.935L804.63 259.904L805.611 264.286L800.759 265.295L796.005 272.748L796.535 274.045L791.422 275.357L789.666 272.013L784.392 272.2L783.685 276.093L781.041 275.357L778.749 279.451L776.488 280.388L775.236 283.17L774.54 280.201L771.895 282.81L771.012 287.077L745.146 302.169L744.612 300.685L742.664 302.919V307.575L740.731 310.357L741.791 314.639L738.793 316.325L737.743 344.997L736.163 345.185L740.554 350.042L788.616 337.732L795.661 344.262L795.308 347.794L797.423 348.918L804.983 341.84L801.112 347.419L801.279 349.106L803.418 347.232L804.291 347.981L798.649 354.137L804.983 353.762L803.933 356.356L812.563 363.449L818.205 361.012L820.3 365.309L826.816 359.903L831.928 359.34L859.565 313.356L854.114 301.982Z" fill="#709051"/>
<path d="M815.026 371.45L812.205 369.215V368.653L808.869 380.575L812.382 381.137L821.895 370.325L815.026 371.45Z" fill="#709051"/>
<path d="M910.453 360.652L906.92 356.356L907.808 349.826L904.634 347.794L901.646 363.448L897.068 365.308L899.178 369.589L896.18 372.386L890.376 370.512L860.983 390.261L865.56 392.87L893.909 373.136L896.362 373.856L905.87 368.465L906.92 365.106L908.868 365.308L915.015 358.043L910.453 360.652Z" fill="#709051"/>
<path d="M764.688 138.672L765.738 125.641L763.982 126.375L762.044 134.563L764.688 138.672Z" fill="#709051"/>
<path d="M741.967 250.578L785.098 251.14L778.764 256.358L778.588 258.766L790.387 250.015L747.772 247.796L749.724 245.013L739.514 242.765L738.455 245.186L725.6 242.029L723.49 244.624L741.967 250.578Z" fill="#709051"/>
<path d="M736.178 146.125H736.163L734.23 145.75L732.473 146.485L731.585 146.125L729.652 148.922L730.697 152.079H733.165L735.113 150.594L736.178 146.125Z" fill="#709051"/>
<path d="M725.777 238.671L726.827 229.358L724.717 229.733L718.393 222.28L719.958 220.046L693.209 199.375L723.122 242.029L725.777 238.671Z" fill="#709051"/>
<path d="M549.912 265.67L534.58 280.201L531.077 312.606L537.931 314.841L542.317 311.122L550.251 278.716L552.719 277.404L551.124 264.935L549.912 265.67Z" fill="#709051"/>
<path d="M173.945 144.207L156.801 135.284L142.928 138.21L143.46 141.007L149.66 135.976L171.846 146.038L173.945 144.207Z" fill="#709051"/>
<path d="M375.622 27.0261L375.186 28.8136L378.621 30.111L386.279 27.6749L387.342 20.8853L389.018 19.8618L388.473 17.267L382.327 16.7048L380.474 19.1122L381.278 19.2996L380.379 20.2365H379.343L378.444 19.6744L377.135 19.8618L376.685 20.6979L377.23 22.0097L376.331 22.9322L378.444 24.1431L378.28 25.4549L377.121 26.0027L375.622 27.0261Z" fill="#709051"/>
<path d="M387.589 15.018H387.602L389.715 16.4162L390.859 16.1423L390.069 17.4397L393.939 19.3137L394.743 20.6111L394.552 23.3932L392.522 23.595L390.955 25.4546H392.263L392.44 26.752L389.102 28.1502L389.183 29.5485L393.067 30.0098L393.421 30.6585L387.425 34.9398L388.556 35.502L389.265 34.565L405.823 32.1577L407.404 25.1807L403.901 24.9789L403.969 23.1193L397.728 11.8466L399.39 9.81403L395.616 8.31487L398.26 3.57223L397.987 2.64966L396.76 3.18302L395.616 4.97052L392.44 4.86961L388.215 9.15094L388.038 12.6827L389.102 13.2593L388.134 13.807L387.589 15.018Z" fill="#709051"/>
<path d="M289.196 240.155L273.864 229.546L262.254 228.969L260.319 230.093V225.639L251.515 221.718L248.517 224.515V220.969L243.952 217.999L244.483 214.078L242.357 212.219L240.422 204.593L218.235 194.142L216.655 190.25L210.85 187.266L210.686 185.233L205.262 180.938L200.111 180.649L199.32 182.322L183.076 174.652L178.197 180.793L178.456 185.277L176.207 182.739L177.802 180.375V177.031L179.778 175.633L178.987 173.816L167.894 178.833L165.523 184.714L147.957 187.078L141.361 179.683L143.868 163.899L139.903 160.814H127.624L135.542 140.719L124.98 141.973L122.745 148.965L111.516 152.165L108.749 149.93L108.627 150.493L103.462 138.067L107.959 119.067L122.091 109.293L127.501 110.13L128.81 111.528L132.121 110.952L135.419 107.463L143.732 107.189L146.24 110.13L149.933 108.602L153.108 112.22L152.181 116.833L155.752 125.785L157.469 126.477L158.259 106.641L181.1 85.4218L180.827 80.1028L182.953 79.6991L185.052 74.9422L187.164 75.2162L191.266 69.767L202.359 66.4227L203.681 64.8949L202.1 63.4962L205.398 58.3216L222.174 52.0363L217.009 55.5248L218.072 58.1773L231.932 53.1609L233.39 50.7822L237.083 50.0758L236.292 48.4037L236.565 46.1693L231.264 50.638L226.126 50.3786L223.755 46.5873L228.102 38.9184L224.545 37.794L211.599 43.9349L218.331 38.2265L221.111 37.794L224.286 34.7236L251.474 29.6926L252.019 30.399L240.381 43.5169L250.425 43.7908L251.079 45.7513L253.327 44.0791L254.513 47.2793L258.479 44.0791L257.293 40.4464L258.356 37.0877L253.723 37.2318L253.191 30.1107L256.366 25.9014L254.254 18.7947L246.854 13.0718L248.312 9.4392L246.336 -1.60289L235.243 6.09484L232.327 3.42804L232.599 -0.0604591L235.107 -2.58313L231.005 -3.96699L230.746 -5.09138L226.794 -8.72404L225.595 -7.45546L216.887 -8.306L207.838 5.66238L210.413 7.89677L208.423 12.9133L197.208 18.0883L195.096 27.3141L189.821 31.0765L187.478 25.0798L190.203 25.6275L190.612 23.6671L188.5 23.8112L191.402 17.1225L184.534 16.5603L182.967 14.5999L179.519 14.0377L179.246 12.4952L173.958 9.56895L170.797 9.98698L171.451 4.26412L168.289 3.71635L205.78 -19.4778L206.311 -19.1895L198.394 -12.5008L201.173 -12.0828L200.765 -10.3962L206.843 -13.6108L210.291 -11.5206L213.589 -11.6647L213.452 -14.3172L207.102 -19.4778L206.584 -20.8761L208.819 -20.5878L210.686 -18.9156L220.58 -24.5087L220.321 -26.3251L223.359 -29.3955L221.37 -31.6155L237.737 -28.6891L236.429 -27.435L231.005 -26.7287L229.683 -23.9465L233.649 -23.3843L236.688 -26.7287L239.986 -27.017L240.517 -23.6727L233.512 -20.04L233.39 -17.5173L224.409 -17.6615L221.629 -15.283L223.878 -13.1927L232.981 -12.9045L234.848 -9.12764L245.151 -7.87354L242.357 -11.3764L249.362 -7.87354L250.411 -10.9584L252.796 -12.4864L249.103 -17.6615L249.225 -19.7517L257.279 -16.2632L258.479 -18.3534L265.075 -21.15L258.342 -26.4692L256.489 -25.907L254.785 -27.9972L257.429 -32.3218L255.304 -34.5562L252.006 -35.2625L251.201 -37.0788L236.156 -42.8017L234.834 -42.3837L233.131 -43.7819L222.692 -39.0249L222.828 -43.7819L211.067 -36.6608L211.204 -33.302L217.404 -32.192L205.793 -23.2546L205.262 -25.489L207.906 -27.1611L203.94 -30.0875L203.286 -37.9149L217.282 -44.4739L206.311 -44.0558L193.515 -33.4318L193.242 -30.2316L188.241 -31.2118L182.967 -28.9775V-25.907L159.977 -26.8728L159.718 -24.9268L144.263 -25.0709L149.02 -27.3053L130.799 -30.6496L130.282 -32.7398L126.043 -30.9235L124.857 -33.8642L64.922 -35.8247L65.181 -36.5599L65.3037 -36.6464L30.5934 -27.4494L31.9017 -21.3085L26.7503 -20.7463L28.0722 -22.6924L14.5943 -18.7859L14.8668 -17.2579L13.9401 -15.4416L21.7353 -14.6054L22.662 -11.8089L1.52514 -5.23556L-1.10504 1.32341L3.51481 0.487324L0.871006 4.26412L7.73946 4.68216L-26.9844 20.1785L27.5272 0.213436L27.2818 3.00999L57.5086 1.74145L60.1521 5.9363L59.3617 18.2325L64.1178 17.6703L63.4501 32.6189L59.7571 31.7829L59.6207 35.4011L64.3906 40.432L46.6879 70.1853L48.405 91.419L55.4097 97.8335L58.5713 114.454L55.9411 116.415L58.9667 120.869L60.1658 121.028L62.5508 123.954L61.6102 127.861L66.8982 135.818L69.1467 133.454L59.8935 108.587L60.8198 102.864L64.6497 103.7L71.2589 120.869L70.4685 124.646L80.1034 136.798L79.967 141.685L78.5088 144.064L79.2992 147.422L87.3671 153.693L88.6756 153.419L104.129 161.664L109.281 159.992L142.696 190.163L143.882 189.327L149.674 193.378L151.923 191.965L151.282 189.327L153.381 187.093H155.234L157.21 188.765L157.074 190.711L159.459 194.762L159.581 206.078L154.566 211.815L154.443 215.16L151.404 216.413L148.761 228.147L151.404 230.656L147.302 235.975L184.275 288.576L193.242 379.263L195.532 379.09L194.128 374.996L195.886 375.183L197.29 384.293L195.886 382.982L193.774 385.418L195.532 387.09L194.305 393.043L196.772 393.419L198.53 394.903L196.772 398.074L216.832 420.793L228.634 423.95L233.73 420.043L219.476 409.982L218.235 406.263L220.171 404.778L222.637 396.027L217.009 391.184L217.35 386.888L219.476 385.605L220.348 379.075L222.283 376.653L218.426 376.106L216.655 373.136V370.887L222.474 371.248L224.055 368.841L224.232 363.622L233.908 362.137L234.439 352.075L231.264 346.67L229.506 347.044L231.101 345.372L239.89 349.106L247.999 332.139H250.629L254.499 321.717L253.627 315.561L273.183 302.53L289.196 240.155Z" fill="#709051"/>
<path d="M173.701 153.563L190.19 149.657L186.62 146.716L177.516 147.004L177.122 151.055H172.76L172.638 151.473L173.701 153.563Z" fill="#709051"/>
</g>
</g>
<defs>
<clipPath id="clip0_27_260">
<rect width="942" height="424" fill="white"/>
</clipPath>
</defs>
</svg>
