<svg width="1920" height="400" viewBox="0 0 1920 400" fill="none" xmlns="http://www.w3.org/2000/svg">
<path opacity="0.3" d="M0.6656 85.83C0.6656 85.83 91.0336 86.83 131.994 85.83C172.954 84.83 215.194 81.83 215.194 81.83C215.194 81.83 291.994 76.83 379.034 78.33C466.074 79.83 586.394 77.33 586.394 77.33C586.394 77.33 668.314 79.33 729.753 79.33C791.193 79.33 923.034 85.83 923.034 85.83H1079.19L728.474 60.83C728.474 60.83 667.034 51.83 622.234 50.83C577.434 49.83 496.205 49.33 496.205 49.33L316.314 46.83L184.474 44.33L0 39.83V0C0 0 530.099 30.83 567.219 28.33C604.339 25.83 688.819 26.83 748.979 26.33C809.139 25.83 814.259 24.83 861.619 22.83C908.979 20.83 1047.22 40.33 1122.74 44.83C1198.26 49.33 1473.46 61.83 1537.46 63.33C1601.46 64.83 1920 63.83 1920 63.83V93.59C1920 93.59 1688.5 86.83 1616.82 87.83C1545.14 88.83 1388.98 93.59 1388.98 93.59C1388.98 93.59 1269.94 104.83 1186.74 107.83C1103.54 110.83 930.739 105.83 862.899 102.33C795.059 98.83 458.419 94.35 385.459 93.59C312.499 92.83 212.659 99.83 212.659 99.83L0.6656 108.75V85.83Z" fill="#EDF0CF"/>
<path opacity="0.3" d="M925.619 0C925.619 0 1162.42 21.83 1239.22 24.33C1316.02 26.83 1341.62 22.33 1422.26 23.83C1502.9 25.33 1532.34 23.83 1592.5 26.33C1652.66 28.83 1771.7 34.83 1771.7 34.83L1920 40.33V0H925.619Z" fill="#EDF0CF"/>
<path d="M0 142.73C0 142.73 60.8 153.28 71.296 153.28C81.792 153.28 131.302 147.42 173.286 142.73C215.296 138.04 272.282 135.11 272.282 135.11C272.282 135.11 323.277 116.36 341.274 116.36C359.27 116.36 410.266 131.01 417.766 132.77C425.267 134.53 446.259 135.7 446.259 135.7L468.762 133.94C468.762 133.94 525.747 138.04 554.266 137.46C582.758 136.87 603.75 135.7 608.256 135.7C612.761 135.7 644.25 136.29 644.25 136.29L768.742 113.44H806.246C806.246 113.44 840.755 108.75 845.235 108.75C849.715 108.75 906.726 126.86 906.726 126.86H959.974L984.729 129.25L1008.72 138.04L1049.22 141.56L1124.22 148.01C1124.22 148.01 1215.72 149.77 1259.21 143.32C1302.71 136.88 1326.72 134.53 1326.72 134.53L1359.72 132.77L1385.22 128.49L1416.7 131.6L1469.21 136.87C1469.21 136.87 1575.71 155.03 1583.21 152.69C1590.71 150.35 1679.21 144.49 1679.21 144.49L1742.21 136.29L1785.7 130.83L1863.71 138.05L1920 142.74V313.83H0V142.74V142.73Z" fill="url(#paint0_linear_100_530)"/>
<path d="M162.304 236.61C162.304 236.61 253.338 230.24 304.947 230.24C356.557 230.24 431.309 232.89 497.869 224.93C564.429 216.97 575.309 217.5 639.155 220.68C703.002 223.86 780.774 228.74 780.774 228.74C780.774 228.74 872.078 219.09 921 220.68C969.922 222.27 1097 238 1097 238C1097 238 1174.01 228.12 1227 230.24C1279.99 232.36 1279.08 245.09 1340.21 249.33C1401.34 253.58 1438.03 256.76 1467.93 255.7C1497.83 254.64 1541.3 244.56 1592.91 239.25C1644.54 233.94 1692.08 223.86 1818.44 242.96C1944.81 262.06 1863.27 273.21 1863.27 273.21C1863.27 273.21 1481.5 339.55 1181.26 345.92C881.024 352.29 529.126 343.8 529.126 343.8L218.01 313.55L162.304 236.6V236.61Z" fill="url(#paint1_linear_100_530)"/>
<path d="M1007.29 249.849L1007.26 246.031C1013.73 242.402 1009.42 249.113 1009.69 250.474C1009.83 251.201 1011.45 251.914 1011.33 253.22C1011.15 255.134 1009.72 257.838 1007.76 258.464C1007.56 266.316 1003.64 276.03 1004.09 283.652C1004.52 290.768 1004.46 298.173 1005.01 305.271C1005.1 306.421 1005.48 309.415 1005.97 310.289C1006.7 311.582 1014.55 317 1015.57 316.085C1014.83 313.748 1012.01 312.285 1010.14 310.942L1010.07 309.949C1012.79 303.592 1014.06 296.513 1017.19 290.335C1018.43 287.893 1020.91 285.248 1021.77 282.957C1023.18 279.176 1024.06 271.863 1025.78 268.579C1026.19 267.783 1027.45 267.452 1027.48 267.107C1027.51 266.831 1025.47 263.51 1025.26 261.996C1024.91 259.444 1025.29 255.75 1027.05 253.754C1029.79 250.653 1031.24 253.377 1034.06 252.976C1036.88 252.576 1039.87 249.301 1043.14 249.849L1041.52 259.034C1045.26 264.099 1050.16 269.457 1053.36 274.811C1053.82 275.58 1054.39 276.279 1054.72 277.125C1055.83 279.912 1055.32 287.691 1055.09 291.012C1054.85 294.333 1053.78 298.367 1053.68 301.586C1053.42 310.091 1064.99 304.618 1070.15 303.79C1078.56 302.433 1085.92 302.253 1094.27 303.96C1094.69 304.047 1095.33 303.523 1095.53 304.581C1082.12 305.39 1068.31 309.912 1056.62 316.467C1054.46 317.681 1047.4 322.989 1046.01 323.343C1044.25 323.799 1041.98 322.676 1040.15 322.529C1029.79 321.71 1012.85 327.961 1003.61 332.86C1001.81 333.817 995.206 338.417 994.19 338.614C993.344 338.78 992.41 338.614 991.564 338.499C987.75 337.957 972.231 330.74 969.163 328.265C968.947 328.09 968.533 327.718 968.699 327.584L998.109 318.504C998.146 314.848 999.907 310.62 999.963 307.083C1000 304.36 998.817 301.527 999.944 298.601L994.461 316.793L993.058 317.916L997.033 301.062C996.246 296.623 998.224 290.634 996.89 286.256C996.425 284.733 988.141 273.1 986.541 270.86C983.188 266.173 977.981 262.696 978.358 256.067C978.454 254.352 979.2 251.822 979.857 250.203C980.35 248.984 981.651 245.884 983.146 246.137C985.644 250.309 992.419 251.196 995.096 254.94C996.793 257.309 999.714 268.588 999.967 271.679C1000.34 276.196 998.445 280.579 998.118 285.046C997.787 289.544 998.389 294.116 997.658 298.606L1002.12 280.763L1005.77 257.866C1004.17 257.047 1002.94 255.207 1001.68 254.329C998.486 252.107 994.471 250.704 991.076 248.381C989.696 247.438 984.176 243.184 983.648 242.02C983.119 240.856 983.376 237.816 983.537 236.408C983.887 233.358 986.564 223.147 987.902 220.539C988.997 218.405 991.973 217.655 993.523 219.716C996.872 224.159 988.473 234.973 990.818 239.444C991.426 240.603 995.896 244.435 997.184 245.488C998.095 246.229 1002.03 249.398 1002.72 249.623C1003.59 249.904 1005.97 249.117 1007.29 249.849ZM1046.76 308.67C1045.93 299.963 1045.15 291.062 1046.75 282.383L1036.25 273.772C1034.29 278.096 1032.64 283.307 1030.35 287.424C1029.22 289.457 1027.53 291.186 1026.41 293.132C1023.82 297.585 1021.35 302.12 1018.56 306.453C1018.27 306.927 1018.25 307.405 1018.39 307.939C1018.5 308.357 1023.37 314.01 1024.52 313.831L1046.76 308.675V308.67Z" fill="#182F02"/>
<path d="M1073.57 235.954C1073.72 236.188 1074.55 236.175 1074.78 236.809C1075.08 237.66 1074.53 242.499 1073.8 243.286C1073.33 243.792 1072.21 243.571 1072.06 244.173L1068.23 300.939C1068.07 302.001 1067.17 302.443 1066.12 302.287L1068.87 243.87C1064.82 242.867 1065.31 244.284 1062.76 245.806C1059.97 247.467 1049.9 248.879 1046.62 248.451C1043.34 248.023 1044.06 247.025 1042.8 245.365C1040.78 242.72 1038.76 240.048 1036.71 237.435C1036.15 240.572 1039.57 243.971 1040.19 246.165C1040.93 248.815 1032.35 251.423 1030.78 248.649C1029.66 246.662 1030.46 237.72 1030.73 234.91C1030.96 232.637 1031.62 226.487 1032.42 224.671C1032.73 223.967 1035.27 222.366 1036.02 222.44C1037.48 222.587 1040.61 226.06 1041.49 227.357C1042.73 229.183 1048.42 240.508 1049.09 240.898L1062.77 239.376C1063.91 239.04 1068.51 235.788 1068.78 234.813C1069.39 232.61 1068.05 231.441 1071.6 230.733C1074.48 231.087 1072.92 234.928 1073.57 235.963V235.954Z" fill="#182F02"/>
<path d="M1006.36 197.433C1007.41 201.536 1002.28 199.981 1001.82 201.388C1001.42 202.621 1002.83 204.167 1002.69 205.436C1002.55 206.706 1000.72 208.904 1001.31 210.749L996.558 210.813C992.708 215.602 998.228 217.805 999.838 221.664C1003.32 229.985 999.47 234.313 997.418 242.023C995.813 241.337 994.157 240.316 993.5 238.568C994.576 232.667 999.511 222.28 994.442 217.405C992.198 215.243 989.107 214.751 986.844 217.179C984.171 213.596 987 213.927 988.467 212.368C992.101 208.509 988.104 205.137 987.529 201.089C983.987 202.262 985.349 206.062 982.18 207.92C980.455 208.932 976.706 209.903 976.081 207.363C978.831 205.487 978.063 202.686 979.07 200.211C980.211 197.396 985.142 194.742 987.773 196.899C989.728 193.532 994.019 191.053 997.901 192.318C1001.45 193.477 1002.61 197.253 1006.36 197.428V197.433Z" fill="#182F02"/>
<path d="M966.524 227.436C966.924 227.109 969.491 226.557 969.615 226.387C961.727 219.492 974.822 210.095 981.56 213.287C982.089 213.536 982.669 213.623 982.881 214.285C983.193 215.256 980.737 222.579 980.323 224.469C979.357 228.926 977.807 236.507 977.973 240.886C978.037 242.574 979.339 245.702 979.017 247.16C978.851 247.923 976.183 250.628 975.452 250.899C973.516 251.612 967.991 249.639 966.635 248.001C963.971 244.791 963.576 229.86 966.51 227.441L966.524 227.436Z" fill="#182F02"/>
<path d="M980.493 296.62C977.429 299.1 974.104 303.543 971.804 307.011C971.201 307.917 969.559 310.553 969.398 311.436C969.136 312.894 972.374 321.606 975.116 321.165C975.865 322.264 972.733 324.587 971.33 324.302C970.475 324.127 966.809 321.634 965.93 320.921C964.803 320.005 960.627 315.99 959.932 314.955C959.619 314.49 959.38 314.288 959.55 313.649C959.652 313.267 963.405 309.435 964.187 308.124C966.864 303.644 968.244 297.784 970.81 293.134C972.411 290.236 975.176 287.701 976.266 284.799C978.207 279.643 978.027 273.111 979.725 267.789C980.695 267.053 988.16 278.668 988.367 280.057C986.813 282.255 986.661 284.969 985.644 287.287C985.24 288.207 980.902 296.28 980.488 296.616L980.493 296.62Z" fill="#182F02"/>
<path d="M1030.63 219.13C1031.39 220.468 1028.86 228.159 1028.5 230.367C1027.8 234.613 1027.66 250.624 1025.69 252.86C1024.14 254.622 1019.03 254.415 1017.66 252.593C1016.09 250.496 1016.25 240.597 1016.48 237.648C1016.69 234.879 1017.52 230.243 1021.09 230.533C1020.38 229.277 1018.91 229.732 1018.22 228.122C1016.49 224.088 1019.75 219.65 1023.6 218.555C1025.18 218.104 1029.75 217.575 1030.64 219.135L1030.63 219.13Z" fill="#182F02"/>
<path d="M1051.41 212.593L1050.03 212.612L1048.67 218.371L1044.11 218.173C1042.96 220.901 1044.58 223.886 1044.06 226.853L1041.97 222.741C1039.71 220.385 1036.28 218.877 1033.03 219.953C1032.51 217.239 1037.45 217.975 1038.24 216.172C1039.25 213.84 1035.84 208.927 1036.25 205.51C1036.77 201.205 1041.84 200.105 1045.56 200.745C1046.48 200.906 1051.47 203.017 1051.92 203.606C1053.18 205.243 1050.12 206.425 1050.05 207.745C1050.01 208.661 1051.9 212.129 1051.41 212.598V212.593Z" fill="#182F02"/>
<path d="M0 191.54C0 191.54 11.8528 191.03 30.3104 191.54C48.768 192.05 68.9664 208.53 73.8048 209.04C78.6432 209.55 81.28 210.93 82.1504 212.47C83.0208 214.01 95.3344 223.97 101.478 225.17C107.622 226.37 108.954 225.34 112.026 226.71C115.098 228.08 119.066 229.11 119.066 227.57C119.066 226.03 125.21 217.96 131.354 221.56C137.498 225.16 137.933 233.4 143.206 232.71C148.48 232.02 155.494 228.42 163.405 228.33C171.315 228.24 177.024 227.56 178.33 227.04C179.635 226.53 189.312 223.44 196.326 222.75C203.366 222.06 205.107 219.66 213.453 218.98C221.798 218.29 238.49 219.84 240.256 221.38C242.022 222.92 246.835 227.04 252.544 227.73C258.253 228.42 258.688 231.85 263.962 234.25C269.235 236.65 290.33 240.6 303.053 244.55C315.802 248.5 323.251 251.76 327.219 251.58C331.162 251.41 330.726 249.18 330.726 249.18L333.363 246.95H339.942L341.248 249.01V251.59L339.482 253.13L346.061 255.36C346.061 255.36 358.349 261.02 368.896 261.37C379.443 261.71 377.242 259.65 386.458 261.37C395.674 263.09 396.57 262.74 408.422 263.26C420.275 263.77 428.186 261.03 439.168 261.2C450.15 261.37 466.842 263.04 476.058 263.32C485.274 263.6 492.749 263.08 498.458 264.11C504.166 265.14 506.803 266.17 515.584 268.4C524.365 270.63 547.661 271.49 563.021 275.26C578.381 279.03 615.296 290.36 628.48 292.08C641.664 293.8 710.63 304.26 722.918 304.61C735.206 304.95 733.901 303.07 745.318 304.61C756.736 306.15 808.576 314.05 840.192 313.53C871.808 313.02 948.685 314.44 978.995 313.55C1009.31 312.66 1019.85 310.61 1034.78 308.21C1049.7 305.81 1093.2 303.06 1110.76 302.2C1128.32 301.34 1139.74 298.43 1157.32 299.11C1174.89 299.8 1209.6 305.46 1224.96 308.2C1240.35 310.95 1297.87 316.87 1322.27 315.06C1346.64 313.26 1351.24 308.37 1378.92 306.31C1406.59 304.25 1444.81 308.63 1465.24 306.82C1485.67 305.02 1510.04 297.81 1510.04 297.81C1510.04 297.81 1531.14 294.98 1535.74 292.66C1540.35 290.34 1563.42 282.88 1563.42 282.88C1563.42 282.88 1590.43 279.28 1612.19 279.28C1633.95 279.28 1654.35 273.1 1654.35 273.1C1654.35 273.1 1713 272.07 1739.34 265.38C1765.71 258.69 1785.47 253.34 1785.47 253.34C1785.47 253.34 1871.8 232.44 1883.65 226.78C1895.5 221.12 1919.9 218.03 1919.9 218.03V399.98H0V191.52V191.54Z" fill="#182F02"/>
<defs>
<linearGradient id="paint0_linear_100_530" x1="950.707" y1="296.18" x2="953.597" y2="157.756" gradientUnits="userSpaceOnUse">
<stop stop-color="#D7DABB" stop-opacity="0.5"/>
<stop offset="1" stop-color="#D7DABB"/>
</linearGradient>
<linearGradient id="paint1_linear_100_530" x1="1016.01" y1="311.5" x2="1016.7" y2="258.79" gradientUnits="userSpaceOnUse">
<stop stop-color="#709160" stop-opacity="0.48"/>
<stop offset="1" stop-color="#709051" stop-opacity="0.8"/>
</linearGradient>
</defs>
</svg>
